<?xml version="1.0" standalone="no"?>
<!DOCTYPE svg PUBLIC "-//W3C//DTD SVG 20010904//EN"
 "http://www.w3.org/TR/2001/REC-SVG-20010904/DTD/svg10.dtd">
<svg version="1.0" xmlns="http://www.w3.org/2000/svg"
 width="2048.000000pt" height="2048.000000pt" viewBox="0 0 2048.000000 2048.000000"
 preserveAspectRatio="xMidYMid meet">

<g transform="translate(0.000000,2048.000000) scale(0.100000,-0.100000)"
fill="#000000" stroke="none">
<path d="M188 17003 c46 -2 118 -2 160 0 42 1 5 3 -83 3 -88 0 -123 -2 -77 -3z"/>
<path d="M7385 14680 c-81 -19 -139 -63 -309 -233 -150 -150 -187 -194 -292
-347 -110 -159 -277 -404 -345 -505 -28 -43 -215 -384 -259 -475 -62 -126
-186 -442 -246 -628 -54 -164 -74 -250 -148 -622 -15 -74 -33 -160 -41 -190
-21 -81 -52 -320 -70 -530 -9 -102 -22 -234 -30 -295 -23 -176 -35 -388 -28
-520 l6 -121 -64 -23 c-35 -13 -93 -38 -128 -57 -66 -36 -201 -133 -201 -144
0 -4 -29 -40 -64 -81 -79 -94 -82 -99 -91 -182 -6 -61 -4 -72 17 -105 12 -20
31 -54 42 -74 26 -52 60 -80 143 -117 66 -30 85 -33 220 -41 82 -5 158 -10
170 -10 18 0 23 -7 28 -37 6 -43 29 -150 56 -268 10 -44 23 -118 29 -165 14
-105 42 -248 80 -405 16 -66 49 -212 74 -325 72 -326 119 -485 171 -583 8 -16
15 -34 15 -40 0 -6 17 -45 38 -86 22 -42 49 -103 62 -136 13 -33 27 -65 32
-71 5 -7 40 -106 79 -220 39 -115 92 -261 118 -324 27 -63 56 -136 65 -163 10
-26 32 -69 50 -95 18 -26 41 -63 51 -82 48 -95 233 -306 260 -296 5 2 19 -1
30 -7 19 -10 19 -9 2 10 -35 40 5 116 170 319 193 238 252 313 276 350 44 71
188 266 242 329 28 33 91 114 140 180 166 225 197 265 205 260 4 -2 10 -24 14
-47 14 -91 69 -307 101 -398 71 -203 123 -313 194 -410 53 -72 202 -239 239
-268 50 -39 184 -119 241 -144 65 -28 218 -77 266 -84 22 -4 65 -13 95 -20 30
-8 69 -14 86 -14 37 0 46 -18 31 -63 -5 -16 -7 -50 -4 -76 7 -59 -12 -148 -48
-229 -34 -76 -76 -110 -190 -152 -217 -82 -211 -79 -268 -139 -31 -32 -59 -71
-63 -85 -19 -78 36 -205 106 -245 59 -33 393 -91 545 -94 61 -2 74 1 100 23
72 60 111 109 132 166 43 113 53 213 53 540 l0 304 119 0 c65 0 139 3 164 6
l45 6 5 -73 c3 -41 10 -162 15 -269 20 -367 61 -517 169 -609 91 -78 119 -82
293 -46 36 7 103 21 150 30 213 42 282 78 327 170 46 93 36 162 -32 230 -56
56 -95 76 -230 114 -159 46 -213 75 -253 142 -44 73 -69 165 -76 280 l-6 97
27 5 c48 10 205 57 293 88 118 42 225 98 306 160 141 108 311 341 397 545 54
128 123 447 156 719 14 116 20 561 10 685 -17 201 -86 516 -168 765 l-47 145
96 30 c208 65 326 188 338 350 8 114 -37 189 -140 234 -165 72 -317 99 -538
94 l-135 -2 -35 50 c-32 46 -82 108 -212 263 l-48 56 208 6 c319 10 434 39
607 153 92 61 164 137 200 211 31 64 33 81 34 250 l1 140 158 1 c214 2 307 22
473 104 68 33 152 83 186 110 55 44 68 61 113 155 72 149 83 224 75 545 -8
307 -16 368 -68 500 -37 92 -51 114 -109 176 -87 91 -150 124 -312 164 -145
35 -306 48 -423 33 -86 -11 -83 -14 -83 101 0 46 -3 85 -6 89 -4 3 -8 25 -9
47 -7 87 -102 230 -203 303 -66 49 -195 112 -257 126 -96 22 -615 28 -970 12
-121 -6 -389 -18 -595 -26 -206 -9 -442 -21 -525 -27 -82 -6 -235 -12 -340
-13 -301 -3 -649 -15 -709 -25 -30 -5 -68 -16 -85 -24 -28 -15 -31 -15 -39 1
-5 10 -49 135 -97 278 -47 143 -115 335 -151 427 -35 93 -79 219 -98 280 -19
62 -39 126 -45 141 -15 38 -14 42 6 26 15 -13 15 -12 6 6 -26 48 -68 68 -118
55z m134 -213 c23 -76 57 -179 77 -230 96 -245 280 -790 268 -794 -5 -2 -47
-24 -94 -51 -116 -65 -221 -172 -279 -283 -42 -81 -43 -87 -48 -194 -6 -169 0
-159 -86 -149 -171 21 -315 6 -482 -52 -44 -15 -100 -34 -125 -42 -33 -10 -66
-35 -120 -91 -69 -69 -79 -85 -117 -181 -23 -59 -46 -138 -52 -180 -14 -101
-17 -608 -3 -692 7 -44 28 -103 62 -173 45 -94 58 -111 113 -155 34 -27 118
-77 186 -110 165 -81 259 -102 472 -104 l157 -1 4 -102 c3 -58 10 -108 17
-116 6 -8 11 -19 10 -23 -5 -18 50 -121 94 -180 72 -94 195 -180 322 -224 67
-23 314 -40 592 -40 l161 0 -43 -65 c-25 -36 -65 -90 -90 -121 -25 -31 -49
-62 -53 -70 -6 -12 -29 -7 -127 26 -249 84 -555 144 -1029 200 -349 42 -865
51 -1131 21 -99 -12 -183 -21 -188 -21 -12 0 -2 522 12 680 6 69 16 179 21
245 14 166 37 368 50 440 6 33 19 112 30 175 10 63 32 176 48 250 17 74 37
180 46 236 16 102 107 433 150 546 13 35 40 97 59 138 20 41 45 100 57 130 69
178 181 404 247 500 39 58 104 157 143 220 40 63 94 147 121 185 27 39 72 104
101 145 103 151 384 469 399 453 4 -4 25 -70 48 -146z m3336 -902 c279 -5 333
-14 424 -68 20 -12 54 -31 75 -42 94 -48 202 -179 229 -278 8 -28 16 -90 18
-137 10 -222 -3 -2027 -16 -2205 -8 -122 -112 -258 -241 -316 -22 -10 -51 -27
-65 -37 -41 -32 -81 -49 -159 -66 -140 -30 -234 -37 -530 -36 -306 1 -644 -10
-1077 -35 -139 -8 -275 -15 -301 -15 l-49 0 -48 113 c-26 61 -69 164 -95 228
-27 64 -75 172 -108 240 -77 159 -128 275 -152 341 -29 81 -72 180 -139 323
-67 141 -116 261 -184 455 -24 69 -54 149 -66 179 -20 49 -20 53 -4 46 158
-64 303 15 303 165 0 143 -137 221 -276 156 -49 -23 -114 -87 -114 -113 0 -37
-22 -1 -68 110 l-51 122 22 19 c43 36 140 78 216 92 89 18 175 13 269 -16 95
-30 110 -11 20 24 -113 45 -184 53 -277 34 -82 -17 -190 -65 -229 -101 -14
-13 -26 -17 -31 -11 -5 5 -23 47 -39 94 -16 47 -43 121 -60 165 -56 149 -152
422 -152 432 0 6 27 20 60 32 52 19 86 22 272 27 286 6 710 21 948 33 107 6
368 17 580 26 494 20 604 25 609 30 2 2 54 2 115 0 61 -3 228 -7 371 -10z
m-2915 -315 c62 -178 163 -456 180 -498 6 -13 10 -32 10 -42 0 -11 5 -20 10
-20 6 0 10 -5 10 -10 0 -6 25 -70 56 -143 31 -72 59 -147 64 -165 4 -18 19
-50 33 -70 24 -34 108 -244 137 -337 26 -86 95 -254 179 -438 49 -106 100
-225 115 -265 28 -80 159 -374 182 -409 7 -12 40 -86 73 -165 32 -79 79 -192
105 -251 36 -85 43 -109 31 -113 -24 -10 -1097 4 -1156 14 -104 18 -217 75
-300 152 -84 76 -125 134 -166 231 -27 64 -27 65 -36 424 -4 198 -10 410 -13
470 -10 229 -12 1017 -3 1178 10 185 20 240 57 307 68 124 152 208 277 278 49
28 91 50 92 49 1 -1 29 -81 63 -177z m4080 -376 c148 -25 179 -33 258 -66 62
-27 89 -46 144 -102 54 -57 73 -85 103 -158 57 -137 65 -178 70 -363 13 -491
9 -535 -63 -687 -45 -94 -58 -112 -109 -153 -85 -68 -276 -161 -381 -186 -95
-23 -309 -36 -386 -25 l-47 7 3 87 3 87 195 6 c133 4 209 11 240 21 128 43
186 90 238 195 65 129 72 193 60 538 -8 239 -12 280 -34 354 -33 116 -63 149
-170 195 -122 53 -264 79 -384 72 -52 -3 -106 -9 -119 -12 -20 -6 -23 -4 -18
10 4 10 7 55 7 101 l0 83 108 8 c121 11 161 9 282 -12z m-4606 -126 c16 -2 17
-8 12 -47 -3 -24 -6 -65 -6 -91 l0 -47 -99 5 c-113 5 -243 -15 -355 -55 -152
-55 -182 -84 -220 -215 -22 -73 -26 -115 -34 -353 -12 -345 -5 -409 60 -538
52 -105 111 -153 238 -195 30 -10 109 -17 242 -21 108 -3 199 -9 202 -12 3 -3
3 -42 -1 -87 l-6 -81 -45 -7 c-76 -11 -290 3 -384 25 -105 25 -296 118 -381
186 -51 41 -64 59 -108 152 -43 91 -53 121 -65 211 -7 58 -12 108 -9 111 2 4
6 126 9 271 6 289 10 310 71 458 29 72 49 102 103 158 l67 70 145 47 c80 26
168 51 195 56 40 8 283 7 369 -1z m4503 -79 c149 -20 290 -74 336 -128 14 -18
31 -51 37 -74 6 -23 18 -64 26 -92 10 -36 16 -132 20 -340 7 -330 1 -375 -63
-497 -84 -160 -218 -212 -534 -206 l-116 2 0 667 0 668 41 4 c88 8 178 7 253
-4z m-4507 -129 c13 -8 15 -62 17 -377 2 -417 7 -597 22 -798 6 -77 11 -145
11 -151 0 -7 -43 -11 -127 -13 -332 -4 -461 45 -546 207 -65 122 -70 167 -63
497 5 264 8 298 30 376 27 99 35 116 68 146 45 42 201 102 303 116 61 8 271 6
285 -3z m-420 -2260 c225 -12 402 -31 620 -66 52 -8 138 -21 190 -30 211 -33
640 -147 640 -170 0 -2 -20 -35 -45 -73 -25 -38 -45 -72 -45 -74 0 -3 -33 -65
-73 -139 -40 -73 -87 -167 -104 -208 l-32 -75 -353 -6 c-323 -6 -816 -26
-1128 -48 -136 -9 -926 3 -1161 18 -131 8 -153 12 -220 41 -89 39 -97 46 -147
135 -39 68 -40 74 -35 140 7 85 8 87 95 191 51 61 95 100 166 148 90 61 236
131 251 122 4 -3 38 4 76 14 106 28 367 64 610 83 97 8 526 6 695 -3z m4282
-324 c48 -8 132 -31 187 -51 92 -34 104 -41 145 -91 58 -71 66 -117 37 -212
-35 -118 -150 -222 -288 -263 -38 -11 -78 -24 -90 -29 -12 -5 -66 -16 -120
-25 -54 -9 -143 -27 -198 -40 -55 -13 -134 -26 -176 -29 -42 -4 -118 -13 -170
-21 -226 -36 -924 -58 -1027 -34 -49 12 -233 96 -267 122 -18 14 -14 20 102
132 126 121 146 148 120 168 -22 17 -80 136 -74 151 3 8 21 19 39 24 18 6 78
25 133 42 54 17 112 30 127 28 15 -3 28 -2 28 2 0 9 73 24 235 50 72 11 155
24 185 30 30 5 150 18 265 30 116 11 226 21 245 23 105 11 482 6 562 -7z
m-1832 -249 c0 -7 17 -45 37 -85 l38 -73 -50 -45 c-28 -25 -85 -80 -128 -122
l-77 -77 -30 35 c-37 43 -44 68 -36 123 16 98 73 172 185 239 45 26 61 28 61
5z m-1316 -309 c-3 -13 -22 -63 -40 -111 -71 -183 -138 -452 -169 -683 -34
-246 -39 -350 -26 -569 11 -191 34 -415 47 -456 3 -10 -18 -45 -53 -90 -32
-41 -99 -130 -148 -198 -50 -68 -116 -155 -149 -194 -62 -74 -200 -261 -243
-331 -23 -36 -99 -134 -271 -345 -30 -36 -81 -104 -114 -150 l-61 -84 -14 39
c-8 22 -31 77 -50 124 -20 47 -50 128 -68 180 -18 52 -59 149 -92 215 -33 66
-71 152 -83 190 -13 39 -39 108 -58 155 -85 207 -205 606 -256 850 -50 242
-86 409 -94 436 -6 17 -19 91 -31 165 -22 133 -43 253 -60 339 -5 25 -14 92
-20 150 -7 58 -20 158 -30 224 l-18 119 256 -5 c141 -3 310 -1 376 3 66 4 282
15 480 23 198 9 374 18 390 20 17 1 160 4 318 4 l288 2 -7 -22z m2376 -346
l65 -17 3 -118 c1 -66 -1 -117 -5 -115 -109 55 -129 61 -213 66 -109 6 -151
-2 -190 -34 -24 -21 -30 -34 -30 -64 0 -68 34 -94 240 -188 178 -81 244 -167
244 -316 -1 -169 -88 -269 -271 -312 -103 -24 -315 -15 -408 17 l-70 24 -3
123 c-1 67 0 122 2 122 3 0 27 -14 53 -30 138 -88 378 -94 422 -12 39 73 -13
134 -174 206 -144 65 -213 111 -252 170 -43 63 -56 116 -51 201 9 140 91 229
253 276 82 24 294 24 385 1z m-1531 -84 c-34 -46 -66 -87 -71 -92 -4 -6 -8 31
-8 82 l0 92 70 0 71 0 -62 -82z m801 -23 l0 -105 -155 0 -155 0 0 -445 0 -445
-130 0 -130 0 0 445 0 444 -151 3 -150 3 77 103 76 102 359 0 359 0 0 -105z
m1604 -1565 c-53 -287 -143 -531 -243 -658 -23 -28 -41 -54 -41 -58 0 -4 -15
-24 -32 -44 -18 -21 -41 -49 -50 -63 -32 -46 -172 -151 -279 -209 -80 -43
-146 -69 -265 -104 -88 -26 -188 -55 -224 -66 -175 -51 -381 -78 -600 -78
-176 0 -582 66 -773 127 -88 27 -230 90 -235 104 -2 5 -10 9 -18 9 -8 0 -22 8
-32 18 -10 10 -33 27 -52 39 -41 26 -114 100 -200 203 -110 131 -163 226 -235
418 -40 108 -105 340 -105 376 0 13 41 15 318 16 353 1 1010 20 1217 35 80 6
242 11 690 20 132 3 265 8 295 11 30 2 179 7 330 10 151 3 338 9 415 13 77 3
141 6 141 6 1 0 -9 -56 -22 -125z m-1137 -1247 c19 -194 23 -215 70 -305 54
-106 90 -133 223 -174 180 -54 211 -66 258 -105 88 -69 103 -138 52 -239 -20
-39 -43 -68 -68 -85 -41 -27 -205 -72 -297 -81 -33 -4 -91 -15 -130 -25 -115
-31 -154 -25 -237 38 -75 57 -123 167 -149 338 -9 55 -27 366 -32 528 -2 75
-6 71 78 82 22 3 76 13 120 24 103 24 110 24 112 4z m-821 -35 l132 -12 1
-305 c1 -235 -2 -327 -14 -396 -21 -122 -63 -205 -137 -268 -54 -46 -61 -50
-110 -49 -63 1 -251 26 -397 53 -119 21 -167 46 -207 111 -60 95 -56 156 16
232 52 55 99 80 255 136 134 49 170 78 219 180 38 81 41 91 47 210 4 69 8 127
8 129 1 2 13 1 29 -3 15 -3 86 -12 158 -18z"/>
<path d="M10606 12919 c-22 -5 -70 -21 -108 -36 -87 -34 -69 -52 24 -23 168
51 343 25 483 -74 62 -44 75 -25 15 23 -116 93 -289 139 -414 110z"/>
<path d="M10650 12671 c-117 -24 -193 -111 -193 -222 0 -123 88 -190 255 -193
60 -1 70 2 105 30 51 42 73 81 83 154 11 75 0 113 -42 158 -58 60 -136 87
-208 73z"/>
<path d="M9435 12443 c-288 -23 -409 -61 -489 -154 -89 -105 -135 -411 -92
-620 9 -40 16 -82 16 -93 0 -26 48 -134 78 -174 38 -52 99 -90 188 -118 77
-23 96 -25 335 -26 318 -2 466 16 574 70 97 48 116 69 166 187 68 159 60 528
-16 698 -43 98 -106 153 -219 194 -70 25 -404 47 -541 36z m390 -28 c249 -21
349 -108 394 -343 29 -149 33 -229 16 -375 -12 -112 -20 -145 -49 -208 -59
-128 -135 -168 -374 -200 -218 -29 -246 -30 -427 -19 -192 12 -252 23 -326 61
-67 33 -102 72 -141 156 -29 60 -35 87 -59 253 -21 145 4 360 55 466 63 133
162 184 390 205 66 6 123 13 126 16 4 5 312 -4 395 -12z"/>
<path d="M9786 11637 c-15 -11 -17 -19 -9 -43 17 -52 82 -66 126 -27 21 20 23
69 1 77 -28 11 -100 6 -118 -7z"/>
<path d="M9213 11623 c-18 -7 -16 -44 3 -71 16 -24 70 -30 104 -12 27 14 36
61 14 77 -17 13 -96 17 -121 6z"/>
<path d="M10690 11636 c0 -5 12 -19 27 -32 26 -22 26 -24 12 -66 -24 -74 -129
-270 -187 -352 -105 -146 -256 -263 -371 -287 -62 -13 -240 -5 -272 11 -12 7
-19 7 -19 1 0 -18 33 -28 131 -40 107 -13 202 0 276 37 102 52 216 159 295
276 45 65 128 235 153 311 24 73 37 88 69 76 24 -10 25 -9 14 9 -14 22 -50 40
-81 40 -13 0 -28 5 -35 12 -7 7 -12 8 -12 4z"/>
<path d="M9219 14023 c-11 -12 -10 -22 8 -53 l22 -38 -34 -31 c-26 -24 -35
-40 -35 -64 0 -46 9 -54 75 -77 53 -18 60 -19 75 -5 10 9 33 18 51 21 46 7 74
-15 74 -57 0 -49 45 -62 230 -63 138 -1 158 1 250 28 127 38 137 49 119 129
-8 32 -26 79 -40 103 -21 35 -31 44 -53 44 -29 0 -80 -44 -67 -57 4 -4 17 6
30 22 22 27 23 28 28 7 7 -27 -7 -157 -22 -199 -10 -27 -19 -33 -63 -45 -59
-15 -313 -15 -362 -1 -26 8 -17 11 66 25 55 9 121 28 155 44 59 28 154 112
154 136 0 7 -13 -2 -28 -20 l-27 -33 -42 39 c-32 31 -62 46 -139 71 -172 55
-227 58 -327 16 -13 -6 -20 0 -28 23 -13 38 -52 57 -70 35z m51 -72 c0 -9 -7
-3 -15 13 -19 36 -19 47 0 22 8 -11 15 -27 15 -35z m286 3 c119 -30 205 -67
233 -100 12 -13 21 -26 21 -28 0 -3 -24 -18 -53 -35 -52 -30 -54 -30 -103 -17
-85 24 -354 141 -354 155 0 10 43 34 75 42 52 12 80 10 181 -17z m-178 -83
c53 -27 133 -63 177 -81 97 -40 110 -50 65 -50 -19 0 -60 -6 -91 -14 -51 -11
-56 -11 -52 3 2 9 -5 26 -17 39 -25 27 -88 30 -129 6 -25 -15 -30 -15 -59 0
-17 9 -38 16 -46 16 -20 0 -34 27 -28 56 4 24 54 74 73 74 5 0 53 -22 107 -49z
m625 20 c18 -31 38 -144 28 -159 -3 -5 -23 -12 -45 -16 -35 -7 -38 -6 -31 11
18 43 26 101 21 146 -6 54 2 60 27 18z"/>
</g>
</svg>
